<?xml version="1.0" encoding="utf-8"?>
<!-- Generator: Adobe Illustrator 27.5.0, SVG Export Plug-In . SVG Version: 6.00 Build 0)  -->
<svg version="1.1" id="Layer_1" xmlns="http://www.w3.org/2000/svg" xmlns:xlink="http://www.w3.org/1999/xlink" x="0px" y="0px"
	 viewBox="0 0 157.65 150.95" style="enable-background:new 0 0 157.65 150.95;" xml:space="preserve">
<style type="text/css">
	.st0{fill-rule:evenodd;clip-rule:evenodd;fill:#010101;}
	.st1{fill:none;stroke:#010101;stroke-width:4.0025;stroke-miterlimit:10;}
	.st2{fill:#E2B627;stroke:#010101;stroke-width:0.9978;stroke-miterlimit:10;}
	.st3{fill:none;stroke:#010101;stroke-width:0.9978;stroke-miterlimit:10;stroke-dasharray:5.6693,2.8347,5.6693,2.8347;}
	.st4{fill:#010101;}
	.st5{font-family:'SourceSansPro-Regular';}
	.st6{font-size:13.5px;}
	.st7{fill:none;stroke:#010101;stroke-width:0.9978;stroke-miterlimit:10;}
	.st8{fill:none;stroke:#010101;stroke-width:2.0013;stroke-miterlimit:10;}
	.st9{font-family:'SourceSansPro-Bold';}
	.st10{font-size:18px;}
	.st11{font-family:'SourceSansPro-Semibold';}
</style>
<polygon class="st0" points="143.91,138.22 129.59,143 129.59,133.45 143.91,138.22 "/>
<line class="st1" x1="2.29" y1="138.22" x2="129.59" y2="138.22"/>
<path class="st2" d="M14.58,123.54c-8.39-11.02,7.15-36.95,34.71-57.9c27.56-20.95,56.69-29,65.08-17.97
	c8.38,11.02-7.16,36.95-34.71,57.9C52.1,126.53,22.96,134.57,14.58,123.54L14.58,123.54z"/>
<line class="st3" x1="6.19" y1="133.03" x2="125.71" y2="35.59"/>
<g>
	<g>
		<text transform="matrix(1 0 0 1 116.3791 16.1392)"><tspan x="0" y="0" class="st4 st5 st6">easy</tspan><tspan x="1.83" y="16.2" class="st4 st5 st6">axis</tspan></text>
	</g>
</g>
<path class="st7" d="M120.52,46.63c5.46,10.56,14.02,17.82,16.38,31.68c2.37,13.86-1.45,34.32-2.19,51.47"/>
<polygon class="st0" points="90.63,83.66 81.98,89.33 80.31,83.01 90.63,83.66 "/>
<line class="st8" x1="24.37" y1="101.2" x2="81.15" y2="86.17"/>
<text transform="matrix(1 0 0 1 45.8135 83.6587)" class="st4 st9 st6">m</text>
<text transform="matrix(1 0 0 1 108.8965 128.4722)" class="st4 st9 st10">B</text>
<path class="st7" d="M86.74,70.67c1.52,1.51,3.79,2.92,4.55,4.55c0.76,1.62,0,3.46,0,5.2"/>
<text transform="matrix(1 0 0 1 139.5786 83.0068)" class="st4 st11 st6">φ</text>
<text transform="matrix(1 0 0 1 95.8413 76.8008)" class="st4 st11 st6">θ</text>
</svg>
